<?xml version="1.0" encoding="iso-8859-1"?>
<!-- Generator: Adobe Illustrator 19.0.0, SVG Export Plug-In . SVG Version: 6.00 Build 0)  -->
<svg version="1.1" id="Layer_1" xmlns="http://www.w3.org/2000/svg" xmlns:xlink="http://www.w3.org/1999/xlink" x="0px" y="0px"
	 viewBox="0 0 512.001 512.001" style="enable-background:new 0 0 512.001 512.001;" xml:space="preserve">
<path style="fill:#5B7A7F;" d="M466.129,478.792c2.023,12-6.348,23.343-18.592,24.94c-11.663,1.521-22.34-6.795-24.284-18.324
	l-16.01-94.946c-3.644-21.616-22.472-37.451-44.528-37.451l0,0c-22.055,0-40.882,15.835-44.528,37.451l-16.095,95.455
	c-2.023,12-13.658,20.012-25.757,17.556c-11.525-2.34-18.891-13.661-16.947-25.19l32.027-189.946h43.992h54.615h43.992h9.381v55.632
	L466.129,478.792z"/>
<path style="fill:#90B5BF;" d="M465.089,191.326v107.789H269.847V191.326c0-35.718,28.955-64.674,64.674-64.674h65.894
	C436.133,126.653,465.089,155.608,465.089,191.326z"/>
<path style="fill:#769CA5;" d="M367.468,299.116h-97.621V191.326c0-35.718,29.138-64.674,65.08-64.674h32.541L367.468,299.116
	L367.468,299.116z"/>
<path style="fill:#7F5D3B;" d="M362.044,374.568v75.453c0,11.906-9.651,21.558-21.558,21.558h-97.892
	c-11.906,0-21.558-9.651-21.558-21.558v-75.453c0-11.906,9.651-21.558,21.558-21.558h97.892
	C352.393,353.01,362.044,362.662,362.044,374.568z"/>
<path style="fill:#B28D5B;" d="M372.891,353.01v32.337c0,11.906-9.651,21.558-21.558,21.558H231.748
	c-11.906,0-21.558-9.651-21.558-21.558V353.01c0-11.906,9.651-21.558,21.558-21.558h119.585
	C363.24,331.453,372.891,341.104,372.891,353.01z"/>
<path style="fill:#FFE77C;" d="M302.489,428.463h-21.896c-8.929,0-16.168-7.239-16.168-16.168l0,0
	c0-8.929,7.239-16.168,16.168-16.168h21.896c8.929,0,16.168,7.239,16.168,16.168l0,0
	C318.658,421.224,311.419,428.463,302.489,428.463z"/>
<path style="fill:#F4C064;" d="M410.855,51.2c0,23.812-19.425,43.116-43.387,43.116c-23.962,0-43.386-19.304-43.386-43.116
	s19.425-43.116,43.386-43.116S410.855,27.388,410.855,51.2z M302.455,212.884h-32.607v118.568c0,11.906,9.651,21.558,21.558,21.558
	h0.271c11.906,0,21.558-9.651,21.558-21.558V223.663C313.234,217.71,308.408,212.884,302.455,212.884z M432.48,212.884
	c-5.953,0-10.779,4.826-10.779,10.779v107.789c0,11.906,9.651,21.558,21.558,21.558h0.272c11.906,0,21.558-9.651,21.558-21.558
	V212.884H432.48z"/>
<path style="fill:#F4AB53;" d="M367.468,8.084v86.232c-23.962,0-43.387-19.304-43.387-43.116
	C324.081,27.388,343.506,8.084,367.468,8.084z"/>
<path d="M91.621,169.766c0-4.466,3.618-8.084,8.084-8.084H229.05c4.466,0,8.084,3.618,8.084,8.084c0,4.466-3.618,8.084-8.084,8.084
	H99.705C95.24,177.85,91.621,174.231,91.621,169.766z M316.642,51.199c0-28.231,22.969-51.199,51.2-51.199
	s51.199,22.968,51.199,51.199s-22.968,51.199-51.199,51.199C339.611,102.399,316.642,79.43,316.642,51.199z M332.811,51.199
	c0,19.317,15.715,35.032,35.032,35.032c19.317,0,35.032-15.715,35.032-35.032s-15.716-35.031-35.032-35.031
	C348.525,16.168,332.811,31.883,332.811,51.199z M468.448,499.984c-4.828,6.523-11.926,10.699-19.987,11.757
	c-15.637,2.045-30.502-9.165-33.156-25.004l-15.91-94.944c-1.846-11.013-8.627-20.478-18.08-25.882v19.432
	c0,9.185-4.199,17.407-10.779,22.849v41.823c0,16.344-13.297,29.642-29.642,29.642H312.12l-1.272,7.589
	c-1.341,8.006-5.766,14.945-12.457,19.54c-5.003,3.434-10.777,5.214-16.701,5.215c-2,0-4.017-0.203-6.029-0.613
	c-14.819-3.029-24.726-16.67-23.532-31.73h-8.245c-16.344,0-29.642-13.298-29.642-29.642v-41.823
	c-6.578-5.442-10.779-13.664-10.779-22.849v-32.337c0-16.344,13.298-29.642,29.642-29.642h29.642V191.323
	c0-40.118,32.639-72.757,72.757-72.757h64.673c40.118,0,72.757,32.639,72.757,72.757v140.124c0,12.563-7.855,23.325-18.912,27.632
	l19.833,118.369C475.199,485.455,473.279,493.458,468.448,499.984z M278.917,331.448c0,7.429,6.044,13.474,13.474,13.474
	s13.474-6.044,13.474-13.474V212.881c0-4.466,3.618-8.084,8.084-8.084s8.084,3.618,8.084,8.084v78.146h91.62v-78.146
	c0-4.466,3.618-8.084,8.084-8.084s8.084,3.618,8.084,8.084v86.23v32.337c0,7.429,6.044,13.474,13.474,13.474
	c0.261,0,0.521-0.008,0.778-0.023c0.115-0.011,0.231-0.019,0.345-0.024c6.906-0.572,12.351-6.376,12.351-13.427V191.323
	c0-31.203-25.385-56.588-56.588-56.588h-64.673c-31.203,0-56.588,25.385-56.588,56.588v140.125H278.917z M295.727,479.657h-27.322
	c-1.205,7.337,3.493,14.459,10.493,15.888c3.627,0.741,7.299-0.001,10.342-2.088c3.042-2.088,5.053-5.243,5.664-8.882
	L295.727,479.657z M354.368,414.862c-0.887,0.08-1.787,0.121-2.695,0.121h-24.4c-1.345,12.109-11.642,21.558-24.104,21.558h-21.558
	c-12.462,0-22.759-9.449-24.104-21.558h-24.401c-0.908,0-1.808-0.041-2.695-0.121v35.152c0,7.429,6.044,13.474,13.474,13.474h17.613
	c0.036,0,0.072,0,0.109,0h43.604c0.04,0,0.078,0,0.117,0h35.567c7.429,0,13.474-6.044,13.474-13.474v-35.152H354.368z
	 M281.612,420.372h21.558c4.458,0,8.084-3.626,8.084-8.084s-3.626-8.084-8.084-8.084h-21.558c-4.458,0-8.084,3.626-8.084,8.084
	S277.153,420.372,281.612,420.372z M365.147,353.005c0-7.429-6.044-13.474-13.474-13.474h-30.762
	c-3.527,12.428-14.978,21.558-28.522,21.558c-13.543,0-24.994-9.13-28.522-21.558h-30.761c-7.429,0-13.474,6.044-13.474,13.474
	v32.337c0,4.932,2.666,9.256,6.63,11.602c0.074,0.041,0.148,0.084,0.22,0.127c1.956,1.109,4.218,1.743,6.623,1.743h28.348
	c4.356-6.495,11.765-10.779,20.157-10.779h21.558c8.391,0,15.801,4.284,20.157,10.779h28.348c7.429,0,13.474-6.044,13.474-13.474
	v-32.336H365.147z M457.912,480.12l-20.028-119.526c-13.77-2.55-24.232-14.651-24.232-29.147v-24.253h-91.62v16.168h29.642
	c14.635,0,26.826,10.659,29.216,24.622c17.932,6.399,31.273,22.176,34.451,41.135l15.91,94.944
	c1.232,7.353,8.012,12.574,15.107,11.645c3.671-0.481,6.902-2.379,9.095-5.343C457.648,487.398,458.522,483.76,457.912,480.12z
	 M237.136,223.66c0-4.466-3.618-8.084-8.084-8.084H45.811c-4.466,0-8.084,3.618-8.084,8.084c0,4.466,3.618,8.084,8.084,8.084h183.24
	C233.516,231.744,237.136,228.126,237.136,223.66z M237.136,277.554c0-4.466-3.618-8.084-8.084-8.084H99.705
	c-4.466,0-8.084,3.618-8.084,8.084c0,4.466,3.618,8.084,8.084,8.084H229.05C233.516,285.638,237.136,282.019,237.136,277.554z"/>
<g>
</g>
<g>
</g>
<g>
</g>
<g>
</g>
<g>
</g>
<g>
</g>
<g>
</g>
<g>
</g>
<g>
</g>
<g>
</g>
<g>
</g>
<g>
</g>
<g>
</g>
<g>
</g>
<g>
</g>
</svg>
