<?xml version="1.0" encoding="iso-8859-1"?>
<!-- Generator: Adobe Illustrator 19.0.0, SVG Export Plug-In . SVG Version: 6.00 Build 0)  -->
<svg version="1.1" id="Layer_1" xmlns="http://www.w3.org/2000/svg" xmlns:xlink="http://www.w3.org/1999/xlink" x="0px" y="0px"
	 viewBox="0 0 241.644 241.644" style="enable-background:new 0 0 241.644 241.644;" xml:space="preserve">
<g>
	<g>
		<g>
			<path d="M197.808,15.912h-66.064V0h-20.696v15.912H99.296c-15.028,0-18.18,6.344-18.18,11.668v15.632
				c0,5.324,3.152,11.668,18.18,11.668h11.752v21.256H43.996l-20.6,19.972l20.628,19h67.028v110.164H76.836
				c-5.468,0-9.752,6.312-9.752,14.372v2h111.128v-2c0-8.06-4.284-14.372-9.752-14.372h-36.712v-110.16h11.42
				c15.116,0,18.288-6.344,18.288-11.668V87.812c0-5.324-3.172-11.668-18.288-11.668h-11.42V54.888h66.088v-0.004l20.412-19.972
				L197.808,15.912z M115.048,4h12.696v2.476h-12.696V4z M115.048,7.608h12.696v8.304h-12.696V7.608z M168.456,229.276v-0.004
				c2.416,0,5.072,3.348,5.64,8.372h-102.9c0.22-1.948,0.764-3.636,1.476-4.984h66.284v-1.132H73.364
				c1.028-1.432,2.28-2.252,3.472-2.252h34.216h20.696H168.456z M115.048,225.276v-0.004v-110.16h12.696v110.164H115.048z
				 M143.168,80.144V80.14c14.288,0,14.288,5.772,14.288,7.668v15.632c0,1.896,0,7.668-14.288,7.668H45.584l-4.568-4.208h25.732
				v-1.128H39.784l-6.528-6.008h11.12v-1.132H32.032l-2.816-2.592l3.524-3.416h31.728v-1.132h-30.56l6.2-6.008h8.776v-1.132h-7.608
				l4.34-4.208H143.168z M115.048,76.14V54.884h12.696V76.14H115.048z M208.12,39.22l-6.144,6.008H190.94v1.132h9.88l-4.62,4.52
				H99.3v0.004c-14.18,0-14.18-5.772-14.18-7.668V27.584c0-1.896,0-7.668,14.18-7.668h96.932l4.188,3.892h-28.064v1.132h29.284
				l6.464,6.008h-12.476v1.132h13.692l3.128,2.908l-3.168,3.1h-34.552v1.132H208.12z"/>
			<path d="M121.396,31.916c-1.916,0-3.48,1.56-3.48,3.48c0,1.92,1.564,3.48,3.48,3.48s3.48-1.56,3.48-3.48
				C124.876,33.476,123.316,31.916,121.396,31.916z M121.396,37.744c-1.292,0-2.348-1.052-2.348-2.348
				c0-1.296,1.056-2.348,2.348-2.348s2.348,1.052,2.348,2.348C123.744,36.692,122.692,37.744,121.396,37.744z"/>
			<path d="M121.396,99.104c1.916,0,3.48-1.56,3.48-3.48c0-1.92-1.564-3.48-3.48-3.48s-3.48,1.56-3.48,3.48
				C117.916,97.544,119.48,99.104,121.396,99.104z M121.396,93.276c1.292,0,2.348,1.052,2.348,2.348
				c0,1.296-1.056,2.348-2.348,2.348s-2.348-1.052-2.348-2.348C119.048,94.328,120.104,93.276,121.396,93.276z"/>
			<rect x="177.096" y="30.944" width="12.408" height="1.132"/>
			<rect x="169.976" y="45.212" width="14.824" height="1.132"/>
			<rect x="50.252" y="98.612" width="11.924" height="1.132"/>
			<rect x="54.784" y="84.344" width="14.248" height="1.132"/>
			<rect x="144.056" y="231.532" width="18.152" height="1.132"/>
		</g>
	</g>
</g>
<g>
</g>
<g>
</g>
<g>
</g>
<g>
</g>
<g>
</g>
<g>
</g>
<g>
</g>
<g>
</g>
<g>
</g>
<g>
</g>
<g>
</g>
<g>
</g>
<g>
</g>
<g>
</g>
<g>
</g>
</svg>
