<?xml version="1.0" encoding="iso-8859-1"?>
<!-- Generator: Adobe Illustrator 19.0.0, SVG Export Plug-In . SVG Version: 6.00 Build 0)  -->
<svg version="1.1" id="Layer_1" xmlns="http://www.w3.org/2000/svg" xmlns:xlink="http://www.w3.org/1999/xlink" x="0px" y="0px"
	 viewBox="0 0 512.002 512.002" style="enable-background:new 0 0 512.002 512.002;" xml:space="preserve">
<g>
	<g>
		<g>
			<path d="M487.085,94.833l-39.084-58.626V21.333C448.001,9.551,438.45,0,426.668,0H85.334C73.552,0,64.001,9.551,64.001,21.333
				v14.874L24.917,94.833c-2.336,3.504-3.583,7.622-3.583,11.834v42.667c0,18.881,8.255,35.891,21.333,47.623v293.71
				c0,11.782,9.551,21.333,21.333,21.333h85.292c0.014,0,0.027,0.002,0.041,0.002h106.667c0.014,0,0.027-0.002,0.041-0.002h191.959
				c11.782,0,21.333-9.551,21.333-21.333v-293.71c13.078-11.732,21.333-28.742,21.333-47.623v-42.667
				C490.668,102.455,489.421,98.337,487.085,94.833z M64.001,113.126L103.085,54.5c2.336-3.504,3.583-7.622,3.583-11.834h298.667
				c0,4.212,1.247,8.329,3.583,11.834l39.084,58.626v36.207c0,7.182-3.653,13.584-9.176,17.459c-0.534,0.257-1.064,0.53-1.589,0.837
				c-2.897,1.693-5.869,2.675-8.861,2.949c-0.565,0.046-1.132,0.088-1.708,0.088c-11.685,0-21.333-9.649-21.333-21.333v-42.667
				h-42.667v42.667c0,11.685-9.649,21.333-21.333,21.333c-11.685,0-21.333-9.649-21.333-21.333v-42.667h-42.667v42.667
				c0,11.685-9.649,21.333-21.333,21.333s-21.333-9.649-21.333-21.333v-42.667h-42.667v42.667c0,11.685-9.649,21.333-21.333,21.333
				c-11.685,0-21.333-9.649-21.333-21.333v-42.667h-42.667v42.667c0,11.685-9.649,21.333-21.333,21.333
				c-0.576,0-1.143-0.042-1.708-0.088c-2.991-0.274-5.964-1.256-8.861-2.949c-0.525-0.307-1.056-0.58-1.589-0.837
				c-5.522-3.876-9.176-10.278-9.176-17.459V113.126z M234.668,469.333h-64V320.002h64V469.333z M426.668,469.333H277.334V298.669
				c0-11.782-9.551-21.333-21.333-21.333H149.334c-11.782,0-21.333,9.551-21.333,21.333v170.665H85.334v-256
				c16.365,0,31.33-6.197,42.667-16.365c11.337,10.168,26.302,16.365,42.667,16.365s31.33-6.197,42.667-16.365
				c11.337,10.168,26.302,16.365,42.667,16.365s31.33-6.197,42.667-16.365c11.337,10.168,26.302,16.365,42.667,16.365
				s31.33-6.197,42.667-16.365c11.337,10.168,26.302,16.365,42.667,16.365V469.333z"/>
			<rect x="298.668" y="277.335" width="106.667" height="128"/>
		</g>
	</g>
</g>
<g>
</g>
<g>
</g>
<g>
</g>
<g>
</g>
<g>
</g>
<g>
</g>
<g>
</g>
<g>
</g>
<g>
</g>
<g>
</g>
<g>
</g>
<g>
</g>
<g>
</g>
<g>
</g>
<g>
</g>
</svg>
