<?xml version="1.0" encoding="iso-8859-1"?>
<!-- Generator: Adobe Illustrator 19.0.0, SVG Export Plug-In . SVG Version: 6.00 Build 0)  -->
<svg version="1.1" id="Layer_1" xmlns="http://www.w3.org/2000/svg" xmlns:xlink="http://www.w3.org/1999/xlink" x="0px" y="0px"
	 viewBox="0 0 511.999 511.999" style="enable-background:new 0 0 511.999 511.999;" xml:space="preserve">
<path style="fill:#DD2645;" d="M389.495,167.866c35.264,53.28,35.262,122.99,0,176.266l-88.135-88.131L389.495,167.866
	L389.495,167.866z M429.403,429.405c95.769-95.769,95.769-251.04,0-346.807c-95.769-95.769-251.039-95.769-346.806,0
	c-95.769,95.767-95.769,251.038,0,346.807C178.363,525.172,333.633,525.172,429.403,429.405L429.403,429.405z M256,301.361
	l-88.133,88.133c53.278,35.267,122.987,35.265,176.266,0L256,301.361L256,301.361z M344.133,122.506
	c-53.279-35.265-122.988-35.263-176.266,0L256,210.639L344.133,122.506L344.133,122.506z M122.504,167.868l88.135,88.133
	l-88.135,88.133C87.239,290.856,87.241,221.145,122.504,167.868z"/>
<g>
	<path style="fill:#000003;" d="M248.385,218.253c2.102,2.103,4.859,3.156,7.615,3.156c2.756,0,5.511-1.052,7.614-3.156
		l88.133-88.131c2.286-2.286,3.425-5.478,3.101-8.696c-0.324-3.216-2.076-6.117-4.771-7.901
		C322.169,95.052,289.638,85.288,256,85.288c-33.636,0-66.169,9.764-94.078,28.238c-2.697,1.784-4.448,4.685-4.772,7.901
		c-0.324,3.216,0.815,6.409,3.101,8.696L248.385,218.253z M256,106.828c24.914,0,49.125,6.124,70.767,17.813L256,195.407
		l-70.768-70.767C206.875,112.951,231.087,106.828,256,106.828z"/>
	<path style="fill:#000003;" d="M290.59,256.001c0,2.856,1.134,5.597,3.155,7.617l88.135,88.131c2.029,2.03,4.774,3.153,7.614,3.153
		c0.359,0,0.718-0.017,1.08-0.055c3.216-0.324,6.117-2.074,7.901-4.771c18.473-27.907,28.238-60.438,28.238-94.076
		s-9.764-66.169-28.238-94.08c-1.784-2.695-4.685-4.447-7.901-4.771c-3.218-0.328-6.409,0.814-8.695,3.101l-88.136,88.135
		C291.724,250.405,290.59,253.144,290.59,256.001z M387.365,185.228c23.916,44.188,23.915,97.356,0,141.544l-70.774-70.771
		L387.365,185.228z"/>
	<path style="fill:#000003;" d="M256.009,426.714c33.629,0,66.159-9.764,94.07-28.238c2.695-1.786,4.447-4.687,4.771-7.903
		c0.324-3.216-0.814-6.407-3.101-8.694l-88.133-88.133c-2.019-2.019-4.758-3.156-7.614-3.156s-5.596,1.136-7.617,3.156
		l-88.132,88.133c-2.285,2.286-3.425,5.478-3.101,8.694c0.324,3.216,2.075,6.117,4.772,7.903
		c27.905,18.471,60.436,28.236,94.076,28.238C256.002,426.714,256.004,426.714,256.009,426.714z M256,316.592l70.767,70.769
		c-21.643,11.689-45.849,17.813-70.758,17.813c-0.002,0-0.009,0-0.011,0c-24.914,0-49.127-6.128-70.767-17.813L256,316.592z"/>
	<path style="fill:#000003;" d="M437.018,74.983C388.666,26.629,324.38,0,255.998,0C187.619,0,123.332,26.629,74.982,74.982
		C26.629,123.334,0,187.62,0,256.001c0,68.379,26.629,132.667,74.981,181.018c48.352,48.352,112.638,74.98,181.017,74.98
		c68.381,0,132.668-26.629,181.02-74.98c48.352-48.352,74.981-112.639,74.981-181.018C512,187.62,485.37,123.334,437.018,74.983z
		 M421.787,421.787c-44.283,44.283-103.162,68.672-165.789,68.672c-62.625,0-121.503-24.389-165.787-68.672
		C45.929,377.504,21.54,318.627,21.54,256.001S45.929,134.498,90.213,90.214c44.282-44.285,103.16-68.674,165.785-68.674
		c62.627,0,121.505,24.388,165.789,68.674c44.284,44.283,68.673,103.161,68.673,165.787
		C490.46,318.627,466.071,377.504,421.787,421.787z"/>
	<path style="fill:#000003;" d="M221.409,256.001c0-2.856-1.135-5.595-3.155-7.614l-88.135-88.133
		c-2.286-2.286-5.477-3.429-8.695-3.101c-3.217,0.324-6.118,2.076-7.902,4.771c-18.473,27.909-28.237,60.442-28.238,94.078
		c0,33.637,9.764,66.168,28.238,94.077c1.784,2.697,4.686,4.449,7.902,4.771c0.361,0.038,0.721,0.055,1.08,0.055
		c2.841,0,5.585-1.123,7.614-3.153l88.135-88.133C220.274,261.596,221.409,258.857,221.409,256.001z M124.634,326.774
		c-23.915-44.188-23.915-97.353,0.001-141.544l70.774,70.771L124.634,326.774z"/>
	<path style="fill:#000003;" d="M53.505,244.214c-0.029,0-0.057,0-0.086,0c-5.908,0-10.722,4.767-10.768,10.686l-0.002,1.1
		c0,5.948,4.822,10.77,10.77,10.77c5.947,0,10.77-4.822,10.77-10.77l0.002-0.932C64.238,249.12,59.453,244.261,53.505,244.214z"/>
	<path style="fill:#000003;" d="M458.581,245.231c-5.947,0-10.77,4.824-10.77,10.77l-0.002,1.016c0,5.946,4.823,10.77,10.77,10.77
		s10.77-4.824,10.77-10.77l0.002-1.016C469.351,250.054,464.528,245.231,458.581,245.231z"/>
	<path style="fill:#000003;" d="M120.37,105.139c-4.207-4.205-11.026-4.205-15.232,0c-32.215,32.215-52.945,73.036-59.951,118.051
		c-0.915,5.877,3.108,11.384,8.985,12.299c0.561,0.086,1.119,0.128,1.67,0.128c5.217,0,9.801-3.799,10.628-9.115
		c6.299-40.469,24.936-77.169,53.9-106.133C124.575,116.165,124.575,109.346,120.37,105.139z"/>
	<path style="fill:#000003;" d="M457.828,276.515c-5.885-0.92-11.383,3.109-12.298,8.984
		C430.891,379.551,351.182,447.813,256,447.813c-5.948,0-10.77,4.824-10.77,10.77c0,5.949,4.822,10.77,10.77,10.77
		c50.861,0,100.146-18.221,138.777-51.305c38.631-33.082,64.214-78.981,72.035-129.236
		C467.728,282.935,463.705,277.429,457.828,276.515z"/>
</g>
<g>
</g>
<g>
</g>
<g>
</g>
<g>
</g>
<g>
</g>
<g>
</g>
<g>
</g>
<g>
</g>
<g>
</g>
<g>
</g>
<g>
</g>
<g>
</g>
<g>
</g>
<g>
</g>
<g>
</g>
</svg>
